# File created by Blade
# Date/Time:  Thu Jan 22 16:05:08 2015
#---------------------------------------------------------
:version 1.10
:name HOM
:units
  mass 1.0
  length 1.000000
  angle deg
:documentation
     Acclaim Skeleton File
:root
   axis xyz
   order TX TY TZ RX RY RZ
   position 0.000000 0.000000 0.000000
   orientation 0 0 0
:bonedata
   begin
      id 1
      name RightUpLeg_dum
      direction -1.000000 0.000000 0.000000
      length 3.766986
      axis 0.0 0.0 0.0 xyz
   end
   begin
      id 2
      name LeftUpLeg_dum
      direction 1.000000 0.000000 0.000000
      length 3.766986
      axis 0.0 0.0 0.0 xyz
   end
   begin
      id 3
      name Spine_dum
      direction 0.000000 1.000000 0.000000
      length 7.779697
      axis 0.0 0.0 0.0 xyz
   end
   begin
      id 4
      name RightUpLeg
      direction 0.000000 -1.000000 0.000000
      length 18.017682
      axis 0.0 0.0 0.0 xyz
      dof rx ry rz
   end
   begin
      id 5
      name RightLeg
      direction 0.000000 -1.000000 0.000000
      length 16.881075
      axis 0.0 0.0 0.0 xyz
      dof rx ry rz
   end
   begin
      id 6
      name RightFoot
      direction 0.000000 -0.258819 0.965926
      length 5.770812
      axis 15.0 0.0 0.0 xyz
      dof rx ry rz
   end
   begin
      id 7
      name RightToeBase
      direction 0.000000 0.000000 1.000000
      length 2.952750
      axis 0.0 0.0 0.0 xyz
      dof rx ry rz
   end
   begin
      id 8
      name LeftUpLeg
      direction 0.000000 -1.000000 0.000000
      length 18.017682
      axis 0.0 0.0 0.0 xyz
      dof rx ry rz
   end
   begin
      id 9
      name LeftLeg
      direction 0.000000 -1.000000 0.000000
      length 16.881075
      axis 0.0 0.0 0.0 xyz
      dof rx ry rz
   end
   begin
      id 10
      name LeftFoot
      direction 0.000000 -0.258819 0.965926
      length 5.770812
      axis 15.0 0.0 0.0 xyz
      dof rx ry rz
   end
   begin
      id 11
      name LeftToeBase
      direction 0.000000 0.000000 1.000000
      length 2.952750
      axis 0.0 0.0 0.0 xyz
      dof rx ry rz
   end
   begin
      id 12
      name Spine
      direction 0.000000 1.000000 0.000000
      length 0.000000
      axis 0.0 0.0 0.0 xyz
      dof rx ry rz
   end
   begin
      id 13
      name Spine_dum1
      direction 0.000000 1.000000 0.000000
      length 10.941760
      axis 0.0 0.0 0.0 xyz
   end
   begin
      id 14
      name Spine_dum2
      direction 0.000000 1.000000 0.000000
      length 10.941760
      axis 0.0 0.0 0.0 xyz
   end
   begin
      id 15
      name Spine_dum3
      direction 0.000000 1.000000 0.000000
      length 16.646042
      axis 0.0 0.0 0.0 xyz
   end
   begin
      id 16
      name RightShoulder
      direction -1.000000 0.000000 0.000000
      length 7.708937
      axis 0.0 0.0 90.0 xyz
      dof rx ry rz
   end
   begin
      id 17
      name RightArm
      direction -1.000000 0.000000 0.000000
      length 11.521345
      axis 0.0 0.0 90.0 xyz
      dof rx ry rz
   end
   begin
      id 18
      name RightForeArm
      direction -1.000000 0.000000 0.000000
      length 10.175898
      axis 0.0 0.0 90.0 xyz
      dof ry rz rx
   end
   begin
      id 19
      name RightHand
      direction -1.000000 0.000000 0.000000
      length 0.000000
      axis 0.0 0.0 90.0 xyz
      dof rx ry rz
   end
   begin
      id 20
      name RightHand_dum1
      direction -1.000000 0.000000 0.000000
      length 3.937000
      axis 0.0 0.0 90.0 xyz
   end
   begin
      id 21
      name RightHand_dum2
      direction 0.000000 0.000000 0.000000
      length 0.000000
      axis 0.0 0.0 90.0 xyz
   end
   begin
      id 22
      name RightHandThumb1
      direction 0.000000 0.000000 1.000000
      length 3.937000
      axis 0.0 0.0 90.0 xyz
      dof rx rz ry
   end
   begin
      id 23
      name LeftShoulder
      direction 1.000000 0.000000 0.000000
      length 7.708937
      axis 0.0 0.0 -90.0 xyz
      dof rx ry rz
   end
   begin
      id 24
      name LeftArm
      direction 1.000000 0.000000 0.000000
      length 11.521345
      axis 0.0 0.0 -90.0 xyz
      dof rx ry rz
   end
   begin
      id 25
      name LeftForeArm
      direction 1.000000 0.000000 0.000000
      length 10.175898
      axis 0.0 0.0 -90.0 xyz
      dof ry rz rx
   end
   begin
      id 26
      name LeftHand
      direction 1.000000 0.000000 0.000000
      length 0.000000
      axis 0.0 0.0 -90.0 xyz
      dof rx ry rz
   end
   begin
      id 27
      name LeftHand_dum1
      direction 1.000000 0.000000 0.000000
      length 3.937000
      axis 0.0 0.0 -90.0 xyz
   end
   begin
      id 28
      name LeftHand_dum2
      direction 0.000000 0.000000 0.000000
      length 0.000000
      axis 0.0 0.0 -90.0 xyz
   end
   begin
      id 29
      name LeftHandThumb1
      direction 0.000000 0.000000 1.000000
      length 3.937000
      axis 0.0 0.0 -90.0 xyz
      dof rx rz ry
   end
   begin
      id 30
      name Head
      direction 0.000000 1.000000 0.000000
      length 4.527550
      axis 0.0 0.0 0.0 xyz
      dof rx ry rz
   end
:hierarchy
   begin
      root RightUpLeg_dum LeftUpLeg_dum Spine_dum
      RightUpLeg_dum RightUpLeg
      LeftUpLeg_dum LeftUpLeg
      Spine_dum Spine
      RightUpLeg RightLeg
      RightLeg RightFoot
      RightFoot RightToeBase
      LeftUpLeg LeftLeg
      LeftLeg LeftFoot
      LeftFoot LeftToeBase
      Spine Spine_dum1 Spine_dum2 Spine_dum3
      Spine_dum1 RightShoulder
      Spine_dum2 LeftShoulder
      Spine_dum3 Head
      RightShoulder RightArm
      RightArm RightForeArm
      RightForeArm RightHand
      RightHand RightHand_dum1 RightHand_dum2
      RightHand_dum2 RightHandThumb1
      LeftShoulder LeftArm
      LeftArm LeftForeArm
      LeftForeArm LeftHand
      LeftHand LeftHand_dum1 LeftHand_dum2
      LeftHand_dum2 LeftHandThumb1
   end

# File created by Blade
# Date/Time:  Thu Jan 22 16:04:59 2015
# Frame Rate: 120.000 fps
#------------------------------------------------------
:FULLY-SPECIFIED
:DEGREES
478
root 2.195382 36.647903 5.948109 4.831795 -55.333648 -11.954782
RightUpLeg -0.759868 21.236734 1.565773
RightLeg 1.699128 -0.000000 -0.000000
RightFoot -0.123303 8.221090 19.635654
RightToeBase 12.875191 -0.000000 -0.000000
LeftUpLeg 23.638587 24.442129 16.893888
LeftLeg 1.426141 -0.000000 -0.000000
LeftFoot -21.350928 25.355568 -29.370380
LeftToeBase 5.164532 -0.000000 -0.000000
Spine 18.758875 -45.470930 -14.099685
RightShoulder -7.374862 -32.746625 -20.086607
RightArm -8.207950 7.747149 67.930174
RightForeArm 31.160184 -0.000000 15.613379
RightHand 4.179981 0.000000 -11.743343
RightHandThumb1 -24.326973 -0.000000 -32.862282
LeftShoulder -1.797164 22.250730 27.737374
LeftArm 104.497793 -7.364256 -21.659093
LeftForeArm 34.606984 -0.000000 74.227236
LeftHand -8.945721 -0.000000 -8.487021
LeftHandThumb1 -26.253704 0.000000 33.147579
Head 17.946408 44.941287 18.915049
479
root 2.209266 36.652601 5.971291 4.392124 -54.653722 -11.562973
RightUpLeg -0.487801 20.855115 1.427657
RightLeg 1.553694 -0.000000 -0.000000
RightFoot -0.305151 7.955697 19.664635
RightToeBase 12.875473 -0.000000 -0.000000
LeftUpLeg 23.580796 24.167102 16.813976
LeftLeg 1.355345 -0.000000 -0.000000
LeftFoot -21.100169 25.035920 -29.187452
LeftToeBase 5.090638 -0.000000 -0.000000
Spine 18.744977 -45.033580 -13.915851
RightShoulder -7.309205 -32.536831 -20.073858
RightArm -8.179165 7.817877 67.548544
RightForeArm 30.782711 -0.000000 15.883326
RightHand 4.247528 -0.000000 -11.734657
RightHandThumb1 -24.326973 -0.000000 -32.862282
LeftShoulder -2.012150 22.246009 27.761348
LeftArm 104.084761 -7.326631 -21.744917
LeftForeArm 34.623195 -0.000000 74.047920
LeftHand -9.009243 -0.000000 -8.277976
LeftHandThumb1 -26.253704 0.000000 33.147579
Head 17.707104 45.270558 18.768055
480
root 2.225921 36.657113 5.991380 3.988080 -53.977653 -11.193916
RightUpLeg -0.245859 20.482454 1.290284
RightLeg 1.425297 -0.000000 -0.000000
RightFoot -0.462032 7.677044 19.484499
RightToeBase 12.653239 -0.000000 -0.000000
LeftUpLeg 23.486423 23.916809 16.737637
LeftLeg 1.325313 -0.000000 -0.000000
LeftFoot -20.857076 24.707121 -28.984931
LeftToeBase 5.015752 -0.000000 -0.000000
Spine 18.708207 -44.631969 -13.733093
RightShoulder -7.231437 -32.428672 -20.123024
RightArm -7.912743 7.733805 67.218630
RightForeArm 30.606601 -0.000000 16.011821
RightHand 4.483993 -0.000000 -11.737225
RightHandThumb1 -24.326973 -0.000000 -32.862282
LeftShoulder -2.285531 22.405756 27.710392
LeftArm 103.698391 -7.489876 -21.716799
LeftForeArm 34.480130 -0.000000 73.833105
LeftHand -9.236086 -0.000000 -7.894641
LeftHandThumb1 -26.253704 0.000000 33.147579
Head 17.520939 45.601621 18.655269
481
root 2.243563 36.661806 6.015704 3.587237 -53.291553 -10.828823
RightUpLeg 0.005333 20.123066 1.139335
RightLeg 1.294407 -0.000000 -0.000000
RightFoot -0.648296 7.409368 19.467010
RightToeBase 12.666031 -0.000000 -0.000000
LeftUpLeg 23.406773 23.675566 16.658786
LeftLeg 1.277545 -0.000000 -0.000000
LeftFoot -20.616248 24.366289 -28.804102
LeftToeBase 4.903582 -0.000000 -0.000000
Spine 18.647285 -44.185962 -13.495316
RightShoulder -7.227977 -32.308491 -20.135060
RightArm -7.678551 7.840551 66.839117
RightForeArm 30.198875 -0.000000 16.212522
RightHand 4.659100 -0.000000 -11.707866
RightHandThumb1 -24.326973 -0.000000 -32.862282
LeftShoulder -2.567284 22.546452 27.604518
LeftArm 103.393888 -7.636164 -21.706850
LeftForeArm 34.299217 -0.000000 73.504347
LeftHand -9.578438 -0.000000 -7.994378
LeftHandThumb1 -26.253704 0.000000 33.147579
Head 17.235597 45.942521 18.445182
482
root 2.261719 36.666414 6.035281 3.206190 -52.596747 -10.478522
RightUpLeg 0.245707 19.748828 0.993117
RightLeg 1.161414 -0.000000 -0.000000
RightFoot -0.742067 7.162793 19.535168
RightToeBase 12.442350 -0.000000 -0.000000
LeftUpLeg 23.310427 23.390573 16.561588
LeftLeg 1.218481 -0.000000 -0.000000
LeftFoot -20.387143 24.066660 -28.619860
LeftToeBase 4.834957 -0.000000 -0.000000
Spine 18.588635 -43.746934 -13.275440
RightShoulder -7.223152 -32.174627 -20.121815
RightArm -7.442337 7.907742 66.414195
RightForeArm 29.851885 -0.000000 16.469585
RightHand 4.814451 -0.000000 -11.742865
RightHandThumb1 -24.326973 -0.000000 -32.862282
LeftShoulder -2.843171 22.726571 27.519034
LeftArm 102.988560 -7.807391 -21.716256
LeftForeArm 34.268104 -0.000000 73.251139
LeftHand -9.665020 -0.000000 -8.355985
LeftHandThumb1 -26.253704 0.000000 33.147579
Head 16.964299 46.262014 18.220720
483
root 2.280296 36.672802 6.055062 2.812527 -51.904656 -10.108770
RightUpLeg 0.490630 19.409443 0.828631
RightLeg 1.030160 -0.000000 -0.000000
RightFoot -0.928873 6.855044 19.464864
RightToeBase 12.407670 -0.000000 -0.000000
LeftUpLeg 23.236439 23.180571 16.483818
LeftLeg 1.146254 -0.000000 -0.000000
LeftFoot -20.098572 23.675989 -28.453270
LeftToeBase 4.757086 -0.000000 -0.000000
Spine 18.504009 -43.280861 -13.094894
RightShoulder -7.160808 -32.020430 -20.080041
RightArm -7.307482 7.996707 65.939558
RightForeArm 29.677231 0.000000 16.830257
RightHand 4.901252 -0.000000 -11.790216
RightHandThumb1 -24.326973 -0.000000 -32.862282
LeftShoulder -3.046717 22.841215 27.467195
LeftArm 102.624792 -7.904302 -21.718333
LeftForeArm 33.966148 0.000000 72.853913
LeftHand -10.094537 -0.000000 -7.829595
LeftHandThumb1 -26.253704 0.000000 33.147579
Head 16.811662 46.587254 18.110026
484
root 2.299218 36.676916 6.074462 2.451548 -51.208009 -9.771411
RightUpLeg 0.726567 19.009692 0.674552
RightLeg 0.911710 -0.000000 -0.000000
RightFoot -1.079993 6.608318 19.431545
RightToeBase 12.291211 -0.000000 -0.000000
LeftUpLeg 23.144127 22.949911 16.404182
LeftLeg 1.095483 -0.000000 -0.000000
LeftFoot -19.850890 23.301154 -28.259357
LeftToeBase 4.724582 -0.000000 -0.000000
Spine 18.416955 -42.815885 -12.870643
RightShoulder -7.178600 -31.888012 -20.047583
RightArm -7.025525 8.050612 65.483496
RightForeArm 29.243240 -0.000000 17.048828
RightHand 5.249271 -0.000000 -11.960655
RightHandThumb1 -24.326973 -0.000000 -32.862282
LeftShoulder -3.287920 22.996346 27.420005
LeftArm 102.197240 -8.007262 -21.811882
LeftForeArm 33.877525 -0.000000 72.510778
LeftHand -10.117518 0.000000 -8.036768
LeftHandThumb1 -26.253704 0.000000 33.147579
Head 16.543653 46.889344 17.856707
485
root 2.320274 36.681269 6.092440 2.072875 -50.505739 -9.425904
RightUpLeg 0.974546 18.637006 0.510578
RightLeg 0.796128 -0.000000 -0.000000
RightFoot -1.247982 6.332800 19.409782
RightToeBase 12.227406 -0.000000 -0.000000
LeftUpLeg 23.064911 22.722408 16.321544
LeftLeg 1.038842 -0.000000 -0.000000
LeftFoot -19.610430 22.907740 -28.106724
LeftToeBase 4.672205 -0.000000 -0.000000
Spine 18.347281 -42.327194 -12.678199
RightShoulder -7.170656 -31.665088 -20.004711
RightArm -6.871234 8.134852 64.988463
RightForeArm 28.881311 -0.000000 17.385200
RightHand 5.498659 -0.000000 -12.166468
RightHandThumb1 -24.326973 -0.000000 -32.862282
LeftShoulder -3.454969 23.116126 27.400906
LeftArm 101.729558 -8.101726 -21.915740
LeftForeArm 33.597509 -0.000000 72.134462
LeftHand -10.127490 -0.000000 -8.214365
LeftHandThumb1 -26.253704 0.000000 33.147579
Head 16.398922 47.251910 17.771204
486
root 2.339265 36.685171 6.113290 1.736479 -49.785247 -9.105778
RightUpLeg 1.219062 18.220945 0.352010
RightLeg 0.662986 -0.000000 -0.000000
RightFoot -1.423183 6.062158 19.339648
RightToeBase 12.173798 -0.000000 -0.000000
LeftUpLeg 22.972774 22.457876 16.221260
LeftLeg 0.951055 -0.000000 -0.000000
LeftFoot -19.348497 22.574776 -27.901479
LeftToeBase 4.611937 -0.000000 -0.000000
Spine 18.228480 -41.914839 -12.429369
RightShoulder -7.158534 -31.455577 -19.994452
RightArm -6.657332 8.262619 64.445424
RightForeArm 28.579996 -0.000000 17.748061
RightHand 5.585962 -0.000000 -12.268725
RightHandThumb1 -24.326973 -0.000000 -32.862282
LeftShoulder -3.693734 23.287273 27.297616
LeftArm 101.240771 -8.204389 -22.022844
LeftForeArm 33.531882 -0.000000 71.747741
LeftHand -10.272491 -0.000000 -8.203341
LeftHandThumb1 -26.253704 0.000000 33.147579
Head 16.352306 47.724338 17.692383
487
root 2.358443 36.688743 6.129639 1.416837 -49.106811 -8.791291
RightUpLeg 1.431225 17.851778 0.190600
RightLeg 0.563774 -0.000000 -0.000000
RightFoot -1.607259 5.796545 19.295469
RightToeBase 12.190445 -0.000000 -0.000000
LeftUpLeg 22.889483 22.266245 16.145663
LeftLeg 0.873282 -0.000000 -0.000000
LeftFoot -19.081973 22.142213 -27.771776
LeftToeBase 4.513882 -0.000000 -0.000000
Spine 18.107939 -41.443265 -12.181173
RightShoulder -7.206115 -31.277276 -19.951176
RightArm -6.387581 8.470759 63.913118
RightForeArm 28.276966 -0.000000 18.166049
RightHand 5.602494 -0.000000 -12.422661
RightHandThumb1 -24.326973 -0.000000 -32.862282
LeftShoulder -3.943244 23.425965 27.217339
LeftArm 100.779913 -8.252140 -22.188713
LeftForeArm 33.238587 -0.000000 71.354269
LeftHand -10.631714 -0.000000 -8.530881
LeftHandThumb1 -26.253704 0.000000 33.147579
Head 16.232636 48.194606 17.604079
